<svg id="airplain-small-gray" xmlns="http://www.w3.org/2000/svg" width="20" height="15" viewBox="0 0 20 15">
  <path id="airplain_icon" data-name="airplain icon" d="M74.609,588.945l-.661-.572a2.344,2.344,0,0,1,0-3.651h0a.907.907,0,0,1,1.151,0l4.047,4.223h2.08a3.8,3.8,0,0,1,4.043,3.5h0a1.435,1.435,0,0,1-1.526,1.321H79.979l-5.363,5.42a1.458,1.458,0,0,1-1.852,0h0a1.954,1.954,0,0,1,0-3.045l1.845-2.375H66.715a1.359,1.359,0,0,1-1.446-1.251v-5.939a1.112,1.112,0,0,1,1.183-1.024h0a2.457,2.457,0,0,1,2.614,2.262v1.133Z" transform="translate(-65.269 -584.516)" fill="#a0b4c8"/>
</svg>
