<svg id="airplain" xmlns="http://www.w3.org/2000/svg" width="80" height="60" viewBox="0 0 80 60">
  <path id="airplain_icon" data-name="airplain icon" d="M102.631,602.234l-2.645-2.288a9.374,9.374,0,0,1,0-14.605h0a3.626,3.626,0,0,1,4.606,0l16.187,16.893h8.32c8.932,0,16.173,6.264,16.173,13.993h0c0,2.917-2.733,5.282-6.1,5.282H124.11l-21.451,21.678a5.832,5.832,0,0,1-7.41,0h0a7.817,7.817,0,0,1,0-12.18l7.381-9.5H71.053c-3.194,0-5.784-2.241-5.784-5V592.748c0-2.261,2.119-4.094,4.732-4.094h0c5.776,0,10.458,4.051,10.458,9.047v4.533Z" transform="translate(-65.269 -584.516)" fill="#fff"/>
</svg>
