<svg xmlns="http://www.w3.org/2000/svg" width="25" height="22" viewBox="0 0 25 22">
  <g id="logout" transform="translate(-67.75 -365)">
    <path id="arc" d="M-186.25,280.171A10,10,0,0,1-193.232,283a10.01,10.01,0,0,1-10.018-10,10.009,10.009,0,0,1,10.018-10,9.991,9.991,0,0,1,6.982,2.829" transform="translate(272 103)" fill="none" stroke="#19324b" stroke-linecap="round" stroke-width="2"/>
    <path id="line" d="M266.5,128h-8" transform="translate(-180.75 248)" fill="#fff" stroke="#19324b" stroke-linecap="round" stroke-miterlimit="10" stroke-width="2"/>
    <g id="flash" transform="translate(-171.25 247.009)" fill="#19324b">
      <path d="M 258.2802124023438 131.9914703369141 C 258.1671142578125 131.9914703369141 257.999755859375 131.8861846923828 257.999755859375 131.6602020263672 L 257.999755859375 126.3228759765625 C 257.999755859375 126.096794128418 258.166748046875 125.9914779663086 258.2796020507812 125.9914779663086 C 258.3201904296875 125.9914779663086 258.3603820800781 126.0037689208984 258.4025268554688 126.0290451049805 L 262.845458984375 128.6969757080078 C 262.9847412109375 128.7805786132812 262.999755859375 128.9303741455078 262.999755859375 128.9909057617188 C 262.999755859375 129.0514221191406 262.9847412109375 129.2012329101562 262.8456115722656 129.2847442626953 L 258.4021911621094 131.9542541503906 C 258.3605651855469 131.9792327880859 258.320556640625 131.9914703369141 258.2802124023438 131.9914703369141 Z" stroke="none"/>
      <path d="M 258.999755859375 130.4286499023438 L 261.3926696777344 128.9910430908203 L 258.999755859375 127.5541229248047 L 258.999755859375 130.4286499023438 M 258.2801818847656 132.9914703369141 C 257.6122741699219 132.9914398193359 256.999755859375 132.4355621337891 256.999755859375 131.6602020263672 L 256.999755859375 126.3228759765625 C 256.999755859375 125.2992401123047 258.0644836425781 124.6598968505859 258.9171752929688 125.1716537475586 L 263.3602600097656 127.8396682739258 C 264.2129211425781 128.3514709472656 264.2129211425781 129.6303405761719 263.3602600097656 130.1421356201172 L 258.9171752929688 132.8114471435547 C 258.7112121582031 132.9350891113281 258.4928894042969 132.9914855957031 258.2801818847656 132.9914703369141 Z" stroke="none" fill="#19324b"/>
    </g>
  </g>
</svg>
