<svg id="balloon" xmlns="http://www.w3.org/2000/svg" width="59" height="80" viewBox="0 0 59 80">
  <path id="basket" d="M487.335,702.534v-5.326a45.316,45.316,0,0,1,4.607-.009c.056,4.321,0,8.641.02,12.963a2.367,2.367,0,0,1-2.366,2.414q-8.293-.008-16.587-.006a2.376,2.376,0,0,1-2.372-2.507q-.008-6.285,0-12.57c-.285-.7,3.565-.193,4.133-.333.466,0,.482.018.483.482,0,1.476,0,2.952,0,4.428.006.444.024.464.461.464Z" transform="translate(-451.803 -632.576)" fill="#fff"/>
  <path id="balloon-r" d="M592.085,292.436c19.737,5.854,28.281,32.4,13.136,47.555q-3.906,3.976-7.829,7.936c-2.177,2.124-2.595,3.623-6.027,3.1,1.5-4.207,3.374-8.274,4.6-12.581a64.375,64.375,0,0,0,1.983-11.557c.631-11.637-.276-24.013-5.912-34.388Z" transform="translate(-553.954 -291.204)" fill="#fff"/>
  <path id="balloon-m" d="M487.708,344.428c-1.788,0-3.572-.007-5.36.005-.838.154-1.073-2.153-1.5-2.759a117.524,117.524,0,0,1-4.349-12.108,63.7,63.7,0,0,1-1.738-16.194,70.889,70.889,0,0,1,2.144-16.859c2.152-8.283,7.878-18.815,13.732-5.9,4.54,10.994,5.075,23.507,3.294,35.187C492.832,332.3,490,338.3,487.708,344.428Z" transform="translate(-455.306 -284.56)" fill="#fff"/>
  <path id="balloon-l" d="M369.992,350.938c-2.915.416-3.523-.476-5.4-2.472-2.526-2.541-5.032-5.1-7.544-7.658-16.225-15.062-8.05-42.348,12.288-48.477-5.805,11.182-6.783,24.445-5.653,36.9C364.281,336.871,367.418,343.855,369.992,350.938Z" transform="translate(-348.443 -291.115)" fill="#fff"/>
</svg>
