<svg id="balloon-small-gray" xmlns="http://www.w3.org/2000/svg" width="15" height="20" viewBox="0 0 15 20">
  <path id="basket" d="M474.869,698.469v-1.331c.391-.023.781-.018,1.171,0,.014,1.08,0,2.16,0,3.241a.6.6,0,0,1-.6.6q-2.109,0-4.217,0a.6.6,0,0,1-.6-.627q0-1.571,0-3.143c-.073-.174.906-.048,1.051-.083.118,0,.123,0,.123.121,0,.369,0,.738,0,1.107,0,.111.006.116.117.116Z" transform="translate(-465.835 -680.979)" fill="#a0b4c8"/>
  <path id="balloon-r" d="M591.548,292.436c5.018,1.463,7.19,8.1,3.34,11.889q-.993.994-1.991,1.984c-.553.531-.66.906-1.532.774.383-1.052.858-2.069,1.168-3.145a17.006,17.006,0,0,0-1-11.486Z" transform="translate(-581.854 -292.128)" fill="#a0b4c8"/>
  <path id="balloon-m" d="M478.052,299.527c-.455,0-.908,0-1.363,0-.213.038-.273-.538-.381-.69a29.066,29.066,0,0,1-1.106-3.027,15.67,15.67,0,0,1-.442-4.049,17.443,17.443,0,0,1,.545-4.215c.547-2.071,2-4.7,3.491-1.476a16.408,16.408,0,0,1,.837,8.8A25.578,25.578,0,0,1,478.052,299.527Z" transform="translate(-469.814 -284.56)" fill="#a0b4c8"/>
  <path id="balloon-l" d="M353.921,306.983c-.741.1-.9-.119-1.372-.618-.642-.635-1.279-1.276-1.918-1.914-4.125-3.766-2.047-10.587,3.124-12.119a16.556,16.556,0,0,0-1.437,9.224A20.541,20.541,0,0,0,353.921,306.983Z" transform="translate(-348.443 -292.027)" fill="#a0b4c8"/>
</svg>
