<svg id="car-small-gray" xmlns="http://www.w3.org/2000/svg" width="18" height="17.5" viewBox="0 0 18 17.5">
  <path id="car_icon" data-name="car icon" d="M16.643,5.812,15.381,1.6A2.236,2.236,0,0,0,13.225,0H4.775A2.236,2.236,0,0,0,2.619,1.6L1.357,5.812A2.251,2.251,0,0,0,0,7.875v4.5A1.125,1.125,0,0,0,1.125,13.5h0v1.125A1.125,1.125,0,0,0,2.25,15.75H3.375A1.125,1.125,0,0,0,4.5,14.625V13.5h9v1.125a1.125,1.125,0,0,0,1.125,1.125H15.75a1.125,1.125,0,0,0,1.125-1.125V13.5h0A1.125,1.125,0,0,0,18,12.375v-4.5a2.251,2.251,0,0,0-1.357-2.063ZM4.775,2.25h8.451l1.013,3.375H3.762L4.775,2.25ZM4.5,10.687A1.125,1.125,0,1,1,5.625,9.562,1.125,1.125,0,0,1,4.5,10.687Zm9,0a1.125,1.125,0,1,1,1.125-1.125A1.125,1.125,0,0,1,13.5,10.687Z" transform="translate(0)" fill="#a0b4c8"/>
</svg>
