<svg id="car" xmlns="http://www.w3.org/2000/svg" width="68.571" height="60" viewBox="0 0 68.571 60">
  <path id="car_icon" data-name="car icon" d="M63.4,22.141,58.594,6.11A8.52,8.52,0,0,0,50.382,0H18.189A8.52,8.52,0,0,0,9.978,6.11L5.169,22.141A8.577,8.577,0,0,0,0,30V47.143a4.286,4.286,0,0,0,4.286,4.286h0v4.285A4.286,4.286,0,0,0,8.571,60h4.286a4.286,4.286,0,0,0,4.286-4.286l0-4.286H51.429v4.285A4.286,4.286,0,0,0,55.714,60H60a4.286,4.286,0,0,0,4.286-4.286V51.429h0a4.286,4.286,0,0,0,4.286-4.286V30A8.577,8.577,0,0,0,63.4,22.141ZM18.189,8.571H50.382l3.857,12.857H14.332L18.189,8.571ZM17.143,40.714a4.286,4.286,0,1,1,4.286-4.286A4.286,4.286,0,0,1,17.143,40.714Zm34.286,0a4.286,4.286,0,1,1,4.286-4.286A4.286,4.286,0,0,1,51.428,40.714Z" transform="translate(0)" fill="#fff"/>
</svg>
