<svg xmlns="http://www.w3.org/2000/svg" width="30" height="30" viewBox="0 0 30 30">
  <g id="sun" transform="translate(-335 -335)">
    <path id="Path_2187" data-name="Path 2187" d="M533.467,338.035a.442.442,0,0,0,.645.23c.451-.37.153-1.089.235-1.6a9.427,9.427,0,0,0-.037-1.366c-.2-.545-.962-.27-.894.267A22.451,22.451,0,0,0,533.467,338.035Z" transform="translate(-183.886)" fill="#fac832"/>
    <path id="Path_2188" data-name="Path 2188" d="M338.3,533.994c.158-.343-.2-.668-.535-.633a17.975,17.975,0,0,0-2.5.063.447.447,0,0,0-.2.635c.367.446,1.078.153,1.586.233h0C337.173,534.2,337.994,534.546,338.3,533.994Z" transform="translate(0 -183.832)" fill="#fac832"/>
    <path id="Path_2189" data-name="Path 2189" d="M534.313,701.3c-.006-.427.012-.857-.007-1.283a.465.465,0,0,0-.922.118,19.845,19.845,0,0,0,.056,2.54.443.443,0,0,0,.672.19C534.51,702.487,534.236,701.8,534.313,701.3Z" transform="translate(-183.853 -337.955)" fill="#fac832"/>
    <path id="Path_2190" data-name="Path 2190" d="M702.307,533.341a16.908,16.908,0,0,0-2.553.07.454.454,0,0,0-.219.547c.287.567,1.12.224,1.634.314h0c.522-.09,1.341.257,1.642-.309A.484.484,0,0,0,702.307,533.341Z" transform="translate(-337.843 -183.812)" fill="#fac832"/>
    <path id="Path_2191" data-name="Path 2191" d="M616.887,677.6c-.016.643.592,1.174.836,1.754.14.242.281.485.428.722a.459.459,0,0,0,.838-.291,23.239,23.239,0,0,0-1.3-2.318A.451.451,0,0,0,616.887,677.6Z" transform="translate(-261.261 -317.229)" fill="#fac832"/>
    <path id="Path_2192" data-name="Path 2192" d="M617.208,364.73c.528.28.724-.364.943-.7a11.505,11.505,0,0,0,.962-1.793.477.477,0,0,0-.929-.117C617.984,362.681,616.5,364.38,617.208,364.73Z" transform="translate(-261.383 -24.835)" fill="#fac832"/>
    <path id="Path_2193" data-name="Path 2193" d="M679.844,617.852a16.005,16.005,0,0,0-2.211-1.2.449.449,0,0,0-.392.678,10,10,0,0,0,1.632,1.022c.349.154.784.635,1.154.308A.488.488,0,0,0,679.844,617.852Z" transform="translate(-317.138 -261.044)" fill="#fac832"/>
    <path id="Path_2194" data-name="Path 2194" d="M362.22,617.942c-.608.223-1.017.889-.206,1.1a16.216,16.216,0,0,0,2.245-1.218.544.544,0,0,0,.322-.5C364.3,616.258,362.795,617.745,362.22,617.942Z" transform="translate(-24.617 -261.314)" fill="#fac832"/>
    <path id="Path_2195" data-name="Path 2195" d="M436.364,364.509a.472.472,0,0,0,.4-.485,14.909,14.909,0,0,0-1.148-2.126c-.118-.225-.328-.5-.618-.392-.917.367.392,1.608.581,2.173C435.8,363.977,435.912,364.535,436.364,364.509Z" transform="translate(-92.385 -24.545)" fill="#fac832"/>
    <path id="Path_2196" data-name="Path 2196" d="M362.16,435.747a11.006,11.006,0,0,0,1.951,1.037c.508.026.59-.7.148-.878-.536-.192-2.223-1.635-2.587-1.078C361.289,435.25,361.805,435.585,362.16,435.747Z" transform="translate(-24.595 -92.406)" fill="#fac832"/>
    <path id="Path_2197" data-name="Path 2197" d="M436.032,677.31a6.75,6.75,0,0,0-.862,1.344c-.266.484-1.15,1.643.012,1.582a.668.668,0,0,0,.345-.351,14.5,14.5,0,0,0,1.164-2.165A.444.444,0,0,0,436.032,677.31Z" transform="translate(-92.31 -317.21)" fill="#fac832"/>
    <path id="Path_2198" data-name="Path 2198" d="M677.736,436.769a15.329,15.329,0,0,0,2.2-1.178.5.5,0,0,0,.257-.744c-.412-.611-1.746.668-2.29.852a3.892,3.892,0,0,0-.435.262A.448.448,0,0,0,677.736,436.769Z" transform="translate(-317.244 -92.389)" fill="#fac832"/>
    <circle id="Ellipse_1" data-name="Ellipse 1" cx="8.415" cy="8.415" r="8.415" transform="translate(341.585 341.585)" fill="#fac832"/>
  </g>
</svg>
